<svg xmlns="http://www.w3.org/2000/svg" version="1.1" xmlns:xlink="http://www.w3.org/1999/xlink" width="24" height="24" x="0" y="0" viewBox="0 0 64 64" style="enable-background:new 0 0 24 24" xml:space="preserve" class=""><g><path d="M62 1H2a1 1 0 0 0-1 1v4a1 1 0 0 0 1 1h13.586l5.707 5.707A.996.996 0 0 0 22 13h2v22c0 .206.077.386.183.545l-.015.01 3.904 5.857.958 3.831A1 1 0 0 0 30 46h1v9h2v-9h1a1 1 0 0 0 .97-.757l.958-3.831 3.904-5.857-.015-.01A.976.976 0 0 0 40 35V13h2c.266 0 .52-.105.707-.293L48.414 7H62a1 1 0 0 0 1-1V2a1 1 0 0 0-1-1zM16.414 5l-2-2h3.172l2 2zm-2.828 0h-3.172l-2-2h3.172zm8.828 0-2-2h3.172l2 2zm6 0-2-2h3.172l2 2zm6 0-2-2h3.172l2 2zm6 0-2-2h3.172l2 2zm6 0-2-2h3.172l2 2zm4-2h3.172l2 2h-3.172zM3 3h2.586l2 2H3zm28 22h2v3a1.001 1.001 0 0 1-2 0zm2-2h-2v-6h2zm-1 8c1.654 0 3-1.346 3-3V17h3v17H26V17h3v11c0 1.654 1.346 3 3 3zm-2.465 9-2.667-4H31v2h2v-2h4.132l-2.667 4zm1.246 4-.501-2h3.439l-.501 2zM38 15H26v-2h12zm3.586-4H22.414l-4-4h27.172zM61 5h-2.586l-2-2H61zM30 57H4c-1.654 0-3 1.346-3 3s1.346 3 3 3h26a1 1 0 0 0 1-1v-4a1 1 0 0 0-1-1zm-1 4H4a1.001 1.001 0 0 1 0-2h25zM60 57H34a1 1 0 0 0-1 1v4a1 1 0 0 0 1 1h26c1.654 0 3-1.346 3-3s-1.346-3-3-3zm0 4H35v-2h25a1.001 1.001 0 0 1 0 2zM34.284 54.29l4-4 1.413 1.415-4 4zM24.285 51.705l1.414-1.414 4 4-1.415 1.413zM19 53h4v2h-4zM41 53h4v2h-4z" fill="#000000" opacity="1" data-original="#000000" class=""></path></g></svg>