<svg xmlns="http://www.w3.org/2000/svg" version="1.1" xmlns:xlink="http://www.w3.org/1999/xlink" width="25" height="25" x="0" y="0" viewBox="0 0 100 100" style="enable-background:new 0 0 512 512" xml:space="preserve" class=""><g><path d="M50 2.5C23.766 2.5 2.5 23.766 2.5 50S23.766 97.5 50 97.5 97.5 76.234 97.5 50 76.234 2.5 50 2.5zm10.414 48.518c4.695 4.704 9.424 9.376 14.08 14.118 3.571 3.637 2.041 9.662-2.768 11.056-2.572.744-4.844.117-6.736-1.764-4.691-4.665-9.363-9.347-14.046-14.021-.926-.924-.932-.924-1.838-.018-4.613 4.61-9.228 9.217-13.832 13.836-1.388 1.392-3.02 2.214-5.069 2.292-2.65-.155-4.779-1.31-5.951-3.824-1.124-2.41-.887-4.759.738-6.907.339-.448.743-.85 1.14-1.248 4.498-4.504 9-9.003 13.499-13.505.97-.969.968-.972-.027-1.968-4.5-4.5-8.997-9.005-13.505-13.498-1.226-1.221-2.168-2.571-2.434-4.342-.4-2.662.91-5.39 3.31-6.75 2.335-1.321 5.432-1.15 7.392.645 2.426 2.222 4.716 4.592 7.052 6.91 2.58 2.564 5.144 5.143 7.717 7.714.888.887.894.889 1.767.017 4.658-4.653 9.305-9.318 13.973-13.96 2.46-2.448 5.676-2.876 8.408-1.174 3.286 2.047 4.168 6.255 1.955 9.43-.374.535-.83 1.02-1.294 1.485-4.494 4.507-8.997 9.005-13.498 13.506-.997.996-1 1.002-.033 1.97z" fill="#000000" opacity="1" data-original="#000000" class=""></path></g></svg>