<svg xmlns="http://www.w3.org/2000/svg" version="1.1" xmlns:xlink="http://www.w3.org/1999/xlink" width="25" height="25" x="0" y="0" viewBox="0 0 64 64" style="enable-background:new 0 0 512 512" xml:space="preserve" fill-rule="evenodd" class=""><g><path d="M44 0v12c0 1.105-.89 2-2 2H22c-1.11 0-2-.895-2-2V0H4a4 4 0 0 0-4 4v48c0 6.627 5.37 12 12 12h3V48c0-1.105.89-2 2-2h30c1.11 0 2 .895 2 2v16h11a4 4 0 0 0 4-4V16c0-1.061-.42-2.078-1.17-2.828l-12-12A4.002 4.002 0 0 0 48 0zM19 64h26V50H19zm1-28h4a4 4 0 0 0 0-8h-4a4 4 0 0 0 0 8zM40 0H24v10h16z" fill="#000000" opacity="1" data-original="#000000" class=""></path></g></svg>