<svg xmlns="http://www.w3.org/2000/svg" version="1.1" xmlns:xlink="http://www.w3.org/1999/xlink" width="512" height="512" x="0" y="0" viewBox="0 0 48 48" style="enable-background:new 0 0 512 512" xml:space="preserve" class=""><g><path fill="#ffffff" d="m45.414 42.586-14.79-14.79A15.903 15.903 0 0 0 34 18c0-8.822-7.178-16-16-16S2 9.178 2 18s7.178 16 16 16c3.691 0 7.085-1.269 9.795-3.377l14.79 14.791c.392.39.903.586 1.415.586s1.023-.195 1.414-.586a2 2 0 0 0 0-2.828z" opacity="1" data-original="#ffffff" class=""></path><path fill="#cccccc" d="m45.414 42.586-14.79-14.79A15.903 15.903 0 0 0 34 18c0-8.822-7.178-16-16-16S2 9.178 2 18s7.178 16 16 16c3.691 0 7.085-1.269 9.795-3.377l14.79 14.791c.392.39.903.586 1.415.586s1.023-.195 1.414-.586a2 2 0 0 0 0-2.828zM6 18c0-6.617 5.383-12 12-12s12 5.383 12 12-5.383 12-12 12S6 24.617 6 18z" opacity="1" data-original="#cccccc" class=""></path></g></svg>