<svg width="151" height="36" viewBox="0 0 151 36" fill="none" xmlns="http://www.w3.org/2000/svg">
<path d="M1.2058 17.5L149.794 17.5" stroke="#DDDDDD" style="stroke:#DDDDDD;stroke:color(display-p3 0.8676 0.8676 0.8676);stroke-opacity:1;" stroke-linecap="square"/>
<g clip-path="url(#clip0_615_3677)">
<circle cx="78" cy="18" r="17.5" fill="white" stroke="#979797" style="fill:white;fill-opacity:1;stroke:#979797;stroke:color(display-p3 0.5922 0.5922 0.5922);stroke-opacity:1;"/>
<path d="M75.1342 23.234C74.2762 23.234 73.5135 23.0477 72.8462 22.675C72.1789 22.3023 71.6589 21.7823 71.2862 21.115C70.9222 20.4477 70.7402 19.6893 70.7402 18.84C70.7402 17.9473 70.9309 17.15 71.3122 16.448C71.6935 15.746 72.2265 15.2 72.9112 14.81C73.6045 14.4113 74.3975 14.212 75.2902 14.212C76.1482 14.212 76.9065 14.3983 77.5652 14.771C78.2325 15.1437 78.7482 15.6637 79.1122 16.331C79.4849 16.9983 79.6712 17.7567 79.6712 18.606C79.6712 19.5073 79.4805 20.309 79.0992 21.011C78.7179 21.7043 78.1849 22.2503 77.5002 22.649C76.8155 23.039 76.0269 23.234 75.1342 23.234ZM75.2772 21.791C75.7885 21.791 76.2349 21.6653 76.6162 21.414C77.0062 21.154 77.3052 20.7987 77.5132 20.348C77.7299 19.8973 77.8382 19.3773 77.8382 18.788C77.8382 18.1813 77.7255 17.6397 77.5002 17.163C77.2835 16.6863 76.9715 16.318 76.5642 16.058C76.1569 15.7893 75.6845 15.655 75.1472 15.655C74.6359 15.655 74.1852 15.785 73.7952 16.045C73.4052 16.2963 73.1019 16.6517 72.8852 17.111C72.6772 17.5617 72.5732 18.0773 72.5732 18.658C72.5732 19.2647 72.6859 19.8063 72.9112 20.283C73.1365 20.7597 73.4529 21.1323 73.8602 21.401C74.2675 21.661 74.7399 21.791 75.2772 21.791ZM84.9416 16.617C85.1929 16.617 85.4356 16.6473 85.6696 16.708V18.346C85.4183 18.2507 85.1279 18.203 84.7986 18.203C84.3306 18.203 83.9363 18.3157 83.6156 18.541C83.3036 18.7663 83.0349 19.1 82.8096 19.542V23H81.1326V16.942L82.7576 16.591V18.151C83.0263 17.657 83.3513 17.28 83.7326 17.02C84.1226 16.7513 84.5256 16.617 84.9416 16.617Z" fill="black" style="fill:black;fill-opacity:1;"/>
</g>
<defs>
<clipPath id="clip0_615_3677">
<rect width="36" height="36" fill="white" style="fill:white;fill-opacity:1;" transform="translate(60)"/>
</clipPath>
</defs>
</svg>
