<svg width="28" height="28" viewBox="0 0 28 28" fill="none" xmlns="http://www.w3.org/2000/svg">
<path d="M14 24.5C19.799 24.5 24.5 19.799 24.5 14C24.5 8.20101 19.799 3.5 14 3.5C8.20101 3.5 3.5 8.20101 3.5 14C3.5 19.799 8.20101 24.5 14 24.5Z" stroke="white" stroke-width="2" stroke-linecap="round" stroke-linejoin="round"/>
<path d="M16.9167 10.5966L16.749 10.4568C16.3296 10.1074 15.8011 9.91602 15.2552 9.91602H12.5417C11.4141 9.91602 10.5 10.8301 10.5 11.9577C10.5 13.0853 11.4141 13.9993 12.5417 13.9993H15.4583C16.5859 13.9993 17.5 14.9134 17.5 16.041C17.5 17.1686 16.5859 18.0827 15.4583 18.0827H12.1473C11.5398 18.0827 10.9563 17.8457 10.5208 17.4223L10.5 17.4022" stroke="white" stroke-width="2" stroke-linecap="round" stroke-linejoin="round"/>
<path d="M14 9.33268V8.16602" stroke="white" stroke-width="2" stroke-linecap="round" stroke-linejoin="round"/>
<path d="M14 19.8327V18.666" stroke="white" stroke-width="2" stroke-linecap="round" stroke-linejoin="round"/>
</svg>
