<svg width="220" height="162" viewBox="0 0 220 162" fill="none" xmlns="http://www.w3.org/2000/svg">
<g clip-path="url(#clip0_1_235)">
<path d="M48.8419 44.7894L7.80762 72.284L48.2262 132.806L89.2605 105.311L48.8419 44.7894Z" fill="#F5F5F5"/>
<path d="M68.0573 102.447L67.5892 105.333L47.1892 102.388L47.6573 99.5013L68.0573 102.447Z" fill="#E0E0E0"/>
<path d="M57.7842 92.1491L60.71 92.5704L57.4661 112.689L54.5366 112.264L57.7842 92.1491Z" fill="#E0E0E0"/>
<path d="M38.9933 66.5796C39.0225 66.6236 34.9118 69.4296 29.81 72.8475C24.7082 76.2653 20.5499 79.0017 20.5207 78.9578C20.4914 78.9138 24.6021 76.1077 29.7039 72.6899C34.8058 69.2721 38.964 66.5357 38.9933 66.5796Z" fill="#E0E0E0"/>
<path d="M54.0831 62.7845C54.1124 62.8285 47.2734 67.4625 38.8106 73.1295C30.3441 78.8002 23.4612 83.361 23.432 83.317C23.4027 83.2731 30.2381 78.6427 38.7045 72.9683C47.1673 67.2976 54.0539 62.7369 54.0831 62.7808V62.7845Z" fill="#E0E0E0"/>
<path d="M57.1075 67.3123C57.1368 67.3562 50.2978 71.9903 41.835 77.6573C33.3685 83.328 26.4857 87.8888 26.4564 87.8448C26.4271 87.8009 33.2625 83.1705 41.7289 77.4961C50.1917 71.8254 57.0783 67.2647 57.1075 67.3086V67.3123Z" fill="#E0E0E0"/>
<path d="M60.132 71.8437C60.1612 71.8877 53.3222 76.5217 44.8594 82.1888C36.393 87.8595 29.5101 92.4202 29.4808 92.3763C29.4515 92.3323 36.2869 87.702 44.7534 82.0276C53.2162 76.3569 60.1027 71.7961 60.132 71.8401V71.8437Z" fill="#E0E0E0"/>
<path d="M63.1603 76.3752C63.1895 76.4191 56.3505 81.0531 47.8877 86.7202C39.4213 92.3909 32.5384 96.9517 32.5091 96.9077C32.4799 96.8637 39.3152 92.2334 47.7817 86.559C56.2445 80.8883 63.131 76.3275 63.1603 76.3715V76.3752Z" fill="#E0E0E0"/>
<path d="M186.056 85.3429L151.594 108.434L185.538 159.261L220 136.17L186.056 85.3429Z" fill="#F5F5F5"/>
<path d="M202.197 133.775L201.805 136.2L184.671 133.727L185.063 131.302L202.197 133.775Z" fill="#E0E0E0"/>
<path d="M193.566 125.126L196.027 125.481L193.299 142.376L190.841 142.021L193.566 125.126Z" fill="#E0E0E0"/>
<path d="M177.789 103.652C177.818 103.696 174.369 106.059 170.083 108.927C165.796 111.799 162.3 114.088 162.271 114.044C162.242 114 165.69 111.638 169.977 108.766C174.259 105.897 177.759 103.604 177.789 103.648V103.652Z" fill="#E0E0E0"/>
<path d="M190.461 100.465C190.49 100.509 184.752 104.406 177.642 109.169C170.533 113.931 164.747 117.755 164.718 117.711C164.688 117.667 170.427 113.773 177.536 109.007C184.642 104.245 190.432 100.421 190.461 100.465Z" fill="#E0E0E0"/>
<path d="M193.003 104.267C193.032 104.311 187.294 108.209 180.184 112.971C173.074 117.733 167.289 121.558 167.259 121.514C167.23 121.47 172.968 117.576 180.078 112.81C187.184 108.048 192.973 104.223 193.003 104.267Z" fill="#E0E0E0"/>
<path d="M195.541 108.073C195.57 108.117 189.832 112.015 182.722 116.774C175.612 121.536 169.827 125.36 169.797 125.316C169.768 125.272 175.506 121.378 182.616 116.612C189.722 111.85 195.511 108.026 195.541 108.07V108.073Z" fill="#E0E0E0"/>
<path d="M198.082 111.879C198.112 111.923 192.373 115.821 185.264 120.583C178.154 125.346 172.368 129.17 172.339 129.126C172.31 129.082 178.048 125.188 185.158 120.422C192.264 115.66 198.053 111.835 198.082 111.879Z" fill="#E0E0E0"/>
<path d="M131.534 47.0119L93.9314 26.8671L64.3175 82.3272L101.92 102.472L131.534 47.0119Z" fill="#F5F5F5"/>
<path d="M95.4865 85.123L93.102 85.9399L87.0457 69.1732L89.4302 68.3526L95.4865 85.123Z" fill="#E0E0E0"/>
<path d="M99.1438 73.0929L100.014 75.4997L83.3885 81.2033L82.5181 78.7966L99.1438 73.0929Z" fill="#E0E0E0"/>
<path d="M110.957 48.3513C110.927 48.4062 107.113 46.4207 102.439 43.9151C97.7613 41.4094 93.998 39.336 94.0273 39.2811C94.0565 39.2261 97.871 41.2116 102.545 43.7173C107.219 46.2229 110.986 48.2963 110.957 48.3513Z" fill="#E0E0E0"/>
<path d="M119.979 58.33C119.95 58.3849 113.637 55.0624 105.884 50.9082C98.127 46.7541 91.8622 43.34 91.8915 43.285C91.9207 43.2301 98.2331 46.5526 105.99 50.7104C113.743 54.8645 120.008 58.2787 119.979 58.3336V58.33Z" fill="#E0E0E0"/>
<path d="M117.763 62.4804C117.733 62.5354 111.421 59.2128 103.668 55.0587C95.9107 50.9046 89.6459 47.4904 89.6752 47.4355C89.7044 47.3805 96.0168 50.7031 103.774 54.8609C111.527 59.015 117.792 62.4292 117.763 62.4841V62.4804Z" fill="#E0E0E0"/>
<path d="M115.546 66.6309C115.517 66.6859 109.205 63.3633 101.451 59.2092C93.6944 55.055 87.4296 51.6409 87.4588 51.5859C87.4881 51.531 93.8005 54.8536 101.557 59.0113C109.311 63.1655 115.576 66.5796 115.546 66.6346V66.6309Z" fill="#E0E0E0"/>
<path d="M113.33 70.7814C113.301 70.8363 106.988 67.5138 99.2351 63.3596C91.4781 59.2055 85.2133 55.7914 85.2425 55.7364C85.2718 55.6815 91.5842 59.004 99.3411 63.1618C107.094 67.3159 113.359 70.7301 113.33 70.785V70.7814Z" fill="#E0E0E0"/>
<path opacity="0.2" d="M113.527 0H112.584V16.111H113.527V0Z" fill="black"/>
<path d="M91.0281 35.6032H135.083C135.083 35.6032 131.016 16.1037 112.723 16.1037C96.4517 16.1037 91.0281 35.6032 91.0281 35.6032Z" fill="#7A7A7A"/>
<path d="M113.527 0H112.584V16.111H113.527V0Z" fill="#7A7A7A"/>
<path d="M211.142 161.121C211.142 161.172 163.873 161.216 105.577 161.216C47.2805 161.216 0 161.172 0 161.121C0 161.07 47.2586 161.026 105.577 161.026C163.895 161.026 211.142 161.07 211.142 161.121Z" fill="#263238"/>
<path d="M11.6849 138.178C12.9211 138.222 14.0804 138.892 14.896 139.826C15.7115 140.757 16.2126 141.929 16.5308 143.127C17.1488 145.442 16.7685 148.179 16.1102 150.483C13.605 149.585 12.0616 146.911 11.3631 145.504C10.2586 143.281 9.6113 138.596 11.6813 138.178" fill="#7A7A7A"/>
<path d="M19.7162 153.289C18.9262 152.153 18.9079 150.574 19.5333 149.336C20.1587 148.102 21.3583 147.211 22.6785 146.805C23.2893 146.618 23.9988 146.537 24.5291 146.893C25.0265 147.226 25.2422 147.878 25.1764 148.472C25.1106 149.065 24.8107 149.611 24.4559 150.091C23.2381 151.743 21.7569 153.117 19.7162 153.285" fill="#7A7A7A"/>
<path d="M19.9904 161.029C19.9904 161.029 19.9392 160.861 19.877 160.549C19.8112 160.205 19.7234 159.762 19.621 159.231C19.4235 158.121 19.109 156.542 19.3467 154.798C19.5734 153.062 20.2647 151.574 20.9888 150.688C21.3435 150.241 21.6873 149.922 21.9397 149.728C22.0604 149.626 22.1701 149.563 22.2359 149.512C22.3054 149.464 22.3456 149.442 22.3493 149.45C22.3749 149.479 21.7641 149.86 21.0875 150.765C20.4036 151.655 19.7453 153.113 19.5186 154.824C19.2845 156.534 19.5734 158.099 19.7417 159.212C19.8295 159.773 19.9026 160.227 19.9465 160.542C19.9867 160.857 20.005 161.033 19.9904 161.033V161.029Z" fill="#263238"/>
<path d="M12.4932 141.706C12.4932 141.706 12.5334 141.768 12.5956 141.896C12.6614 142.039 12.7492 142.226 12.8552 142.453C13.0747 142.94 13.3892 143.647 13.7659 144.523C14.5193 146.277 15.5287 148.717 16.5819 151.432C17.6352 154.15 18.5312 156.633 19.153 158.436C19.4638 159.337 19.7125 160.07 19.8771 160.579C19.9539 160.82 20.0161 161.015 20.0636 161.165C20.1038 161.3 20.1221 161.37 20.1185 161.374C20.1148 161.377 20.0819 161.308 20.0307 161.176C19.9758 161.026 19.9027 160.835 19.8149 160.601C19.6247 160.081 19.3614 159.359 19.0396 158.476C18.3849 156.681 17.4706 154.208 16.421 151.49C15.3677 148.776 14.3803 146.332 13.6562 144.567C13.3014 143.698 13.0088 142.988 12.7967 142.475C12.7016 142.24 12.6285 142.05 12.57 141.903C12.5188 141.772 12.4968 141.702 12.5005 141.698L12.4932 141.706Z" fill="#263238"/>
<path d="M17.0208 155.908C15.5432 153.391 12.7894 151.677 9.88187 151.465C9.14311 151.41 8.25075 151.534 7.9216 152.201C7.59245 152.868 8.03132 153.655 8.53601 154.205C10.6353 156.48 14.1828 157.274 17.0464 156.11" fill="#7A7A7A"/>
<path d="M11.0083 153.45C11.0083 153.45 11.1729 153.446 11.4728 153.468C11.6227 153.479 11.8056 153.49 12.014 153.531C12.2225 153.571 12.4639 153.593 12.7235 153.662C12.9832 153.725 13.2721 153.791 13.5684 153.897C13.8719 153.985 14.1828 154.117 14.5083 154.256C15.1519 154.549 15.8395 154.934 16.4905 155.432C17.1378 155.937 17.6827 156.502 18.1289 157.055C18.341 157.337 18.5458 157.608 18.7068 157.883C18.8823 158.146 19.014 158.41 19.1347 158.648C19.2663 158.883 19.3431 159.113 19.4309 159.308C19.5187 159.502 19.5699 159.678 19.6137 159.82C19.7015 160.106 19.7454 160.264 19.7344 160.267C19.6979 160.282 19.5187 159.641 19.0249 158.703C18.8969 158.472 18.7616 158.216 18.5824 157.959C18.4215 157.692 18.2167 157.432 18.0009 157.157C17.5584 156.619 17.0171 156.069 16.3808 155.571C15.7408 155.08 15.0715 154.699 14.4388 154.402C14.1206 154.263 13.8134 154.128 13.5172 154.036C13.2282 153.926 12.9466 153.857 12.6906 153.783C11.663 153.523 11.001 153.487 11.0047 153.45H11.0083Z" fill="#263238"/>
<path d="M77.76 85.9179L64.8281 152.516L63.1348 161.234L149.467 160.809C153.34 160.791 156.774 157.344 158.021 152.226L173.33 89.3504C174.278 85.4637 172.2 81.4231 169.26 81.4231L81.8817 81.5147C79.9507 81.5147 78.2647 83.3207 77.76 85.9179Z" fill="#F4F4F4"/>
<g opacity="0.5">
<g style="mix-blend-mode:multiply">
<path d="M77.76 85.9179L64.8281 152.516L63.1348 161.234L149.467 160.809C153.34 160.791 156.774 157.344 158.021 152.226L173.33 89.3504C174.278 85.4637 172.2 81.4231 169.26 81.4231L81.8817 81.5147C79.9507 81.5147 78.2647 83.3207 77.76 85.9179Z" fill="black"/>
</g>
</g>
<path d="M141.187 148.006L132.048 74.2248C131.675 71.2026 129.268 68.9461 126.43 68.9571L106.385 69.023C104.9 69.0267 103.477 69.6604 102.424 70.7814L92.9081 80.9139L37.1611 81.207C33.7562 81.2253 31.1377 84.4526 31.5875 88.0829L40.0759 156.274C40.4526 159.293 42.8517 161.546 45.6861 161.538L142.84 161.348C153.662 161.571 154.693 158.373 154.693 158.373C142.292 161.125 141.187 148.017 141.187 148.01V148.006Z" fill="#C1C1C1"/>
<g opacity="0.5">
<path d="M99.2973 133.24L96.0204 136.764L70.7856 114.022L74.0625 110.498L99.2973 133.24Z" fill="white"/>
<path d="M94.6453 109.718L98.2696 112.982L75.4339 137.544L71.8132 134.284L94.6453 109.718Z" fill="white"/>
</g>
</g>
<defs>
<clipPath id="clip0_1_235">
<rect width="220" height="161.538" fill="white"/>
</clipPath>
</defs>
</svg>
