<svg width="24" height="24" viewBox="0 0 24 24" fill="none" xmlns="http://www.w3.org/2000/svg">
<g clip-path="url(#clip0_29_955)">
<path d="M9 24.0008H1C0.734784 24.0008 0.48043 23.8955 0.292893 23.708C0.105357 23.5204 0 23.2661 0 23.0008C0 22.7356 0.105357 22.4813 0.292893 22.2937C0.48043 22.1062 0.734784 22.0008 1 22.0008H9C9.26522 22.0008 9.51957 22.1062 9.70711 22.2937C9.89464 22.4813 10 22.7356 10 23.0008C10 23.2661 9.89464 23.5204 9.70711 23.708C9.51957 23.8955 9.26522 24.0008 9 24.0008ZM7 20.0008H1C0.734784 20.0008 0.48043 19.8955 0.292893 19.708C0.105357 19.5204 0 19.2661 0 19.0008C0 18.7356 0.105357 18.4813 0.292893 18.2937C0.48043 18.1062 0.734784 18.0008 1 18.0008H7C7.26522 18.0008 7.51957 18.1062 7.70711 18.2937C7.89464 18.4813 8 18.7356 8 19.0008C8 19.2661 7.89464 19.5204 7.70711 19.708C7.51957 19.8955 7.26522 20.0008 7 20.0008ZM5 16.0008H1C0.734784 16.0008 0.48043 15.8955 0.292893 15.708C0.105357 15.5204 0 15.2661 0 15.0008C0 14.7356 0.105357 14.4813 0.292893 14.2937C0.48043 14.1062 0.734784 14.0008 1 14.0008H5C5.26522 14.0008 5.51957 14.1062 5.70711 14.2937C5.89464 14.4813 6 14.7356 6 15.0008C6 15.2661 5.89464 15.5204 5.70711 15.708C5.51957 15.8955 5.26522 16.0008 5 16.0008ZM13 23.9558C12.7348 23.9676 12.4757 23.8736 12.2799 23.6944C12.084 23.5152 11.9673 23.2656 11.9555 23.0003C11.9437 22.7351 12.0377 22.4761 12.2169 22.2802C12.3961 22.0843 12.6458 21.9676 12.911 21.9558C14.8035 21.7827 16.6074 21.0739 18.1115 19.9124C19.6157 18.751 20.7577 17.185 21.4039 15.3979C22.0501 13.6107 22.1737 11.6765 21.7602 9.82166C21.3468 7.96682 20.4133 6.2682 19.0693 4.92475C17.7252 3.5813 16.0261 2.64864 14.1711 2.23602C12.3161 1.82339 10.3819 1.94788 8.59507 2.59491C6.80825 3.24193 5.24278 4.3847 4.08202 5.88937C2.92127 7.39404 2.21329 9.19831 2.041 11.0908C2.02918 11.2216 1.99172 11.3488 1.93074 11.4651C1.86977 11.5815 1.78648 11.6846 1.68564 11.7688C1.58479 11.8529 1.46837 11.9163 1.343 11.9555C1.21764 11.9946 1.0858 12.0087 0.955 11.9968C0.824203 11.985 0.697015 11.9476 0.580698 11.8866C0.464381 11.8256 0.361212 11.7423 0.277082 11.6415C0.192952 11.5406 0.129509 11.4242 0.0903745 11.2988C0.0512401 11.1735 0.037181 11.0416 0.049 10.9108C0.327889 7.83415 1.7826 4.98355 4.11033 2.95241C6.43805 0.921278 9.45944 -0.133888 12.5456 0.00655918C15.6317 0.147007 18.5447 1.47225 20.6783 3.70641C22.8119 5.94058 24.0017 8.91154 24 12.0008C24.0153 14.9992 22.9014 17.8934 20.8799 20.1079C18.8584 22.3223 16.0773 23.6946 13.09 23.9518C13.06 23.9548 13.029 23.9558 13 23.9558ZM12 6.00084C11.7348 6.00084 11.4804 6.1062 11.2929 6.29374C11.1054 6.48127 11 6.73563 11 7.00084V12.0008C11.0001 12.266 11.1055 12.5204 11.293 12.7078L14.293 15.7078C14.4816 15.89 14.7342 15.9908 14.9964 15.9885C15.2586 15.9862 15.5094 15.8811 15.6948 15.6957C15.8802 15.5103 15.9854 15.2594 15.9877 14.9972C15.99 14.735 15.8892 14.4824 15.707 14.2938L13 11.5868V7.00084C13 6.73563 12.8946 6.48127 12.7071 6.29374C12.5196 6.1062 12.2652 6.00084 12 6.00084Z" fill="white"/>
</g>
<defs>
<clipPath id="clip0_29_955">
<rect width="24" height="24" fill="white"/>
</clipPath>
</defs>
</svg>
